PathFileType	4	(X/Y/Z)	Patient4_TMGait_0pt5_01_left_36.trc.trc
DataRate	CameraRate	NumFrames	NumMarkers	Units	OrigDataRate	OrigDataStartFrame	OrigNumFrames
75.268817204301	75.268817204301	7	33	mm	75.268817204301	106	       141
Frame#	Time	L.ASIS			Sacral			L.Shoulder			Chest			R.Shoulder			Neck			R.ASIS			R.Thigh.Superior			R.Thigh.Lateral			R.Thigh.Inferior			R.Patella			L.Thigh.Superior			L.Thigh.Lateral			L.Thigh.Inferior			L.Patella			L.Shank.Superior			L.Shank.Lateral			L.Shank.Inferior			R.Shank.Superior			R.Shank.Lateral			R.Shank.Inferior			R.Heel			R.Midfoot.Superior			R.Midfoot.Lateral			R.Toe			L.Heel			L.Midfoot.Lateral			L.Midfoot.Superior			L.Toe			L.Elbow			L.Wrist			R.Elbow			R.Wrist			
		X1	Y1	Z1	X2	Y2	Z2	X3	Y3	Z3	X4	Y4	Z4	X5	Y5	Z5	X6	Y6	Z6	X7	Y7	Z7	X8	Y8	Z8	X9	Y9	Z9	X10	Y10	Z10	X11	Y11	Z11	X12	Y12	Z12	X13	Y13	Z13	X14	Y14	Z14	X15	Y15	Z15	X16	Y16	Z16	X17	Y17	Z17	X18	Y18	Z18	X19	Y19	Z19	X20	Y20	Z20	X21	Y21	Z21	X22	Y22	Z22	X23	Y23	Z23	X24	Y24	Z24	X25	Y25	Z25	X26	Y26	Z26	X27	Y27	Z27	X28	Y28	Z28	X29	Y29	Z29	X30	Y30	Z30	X31	Y31	Z31	X32	Y32	Z32	X33	Y33	Z33	

106	49.345000000000	828.771887039383	965.519851059886	362.470752987361	623.906216151819	1017.518987993362	527.731361308942	817.009342300016	1436.241364507015	343.507682788971	922.796721071483	1359.643638021267	499.725446936580	851.055230589830	1437.522178653434	678.153129117165	828.146291355420	1496.532256197842	494.269694692153	851.018693433923	938.830418314849	635.023257206004	881.566583477691	737.080976317217	605.269720408909	792.280192802650	633.465489769275	660.921405506827	866.883313865007	577.577187442823	581.099736289380	861.726826147098	488.787113567645	585.489915753942	908.460819112406	786.656021791021	392.181376970821	865.669124823869	661.644186608413	311.701285646796	965.771043813994	599.482061722237	375.683581108590	985.462023235145	518.147620735846	368.609202399403	940.451290467729	444.608000040396	356.366672652665	825.668799248220	357.857884431043	301.213383890973	859.822388210278	231.056097599844	353.815178144230	829.821846550200	402.234280529546	589.598207071001	750.978065241742	301.399958325404	644.753742182276	790.844648185282	205.510380053201	581.884575371933	649.779625679490	45.337491977341	540.867411530074	819.463424582419	97.152271536115	589.560057782518	727.880075942273	37.312122363983	621.420368198711	936.277050331317	40.211757232577	626.319452603227	706.370674851759	101.040697932012	384.638736371477	777.246438469468	82.101331188564	304.858285685992	871.122165656201	126.373804963283	329.124863605202	983.678717500501	51.515775561719	301.174618211273	753.306382892138	1080.802626215329	242.955130537737	803.031624408966	824.812361510600	228.955555450716	881.317533532680	1097.884201322567	806.662238884914	1116.285490006159	1003.192204180237	766.727607295755	
107	49.358285714286	827.443171744948	965.818659647902	362.340096806886	623.604464363552	1018.076207853202	528.979778320675	816.502379099233	1436.168905850793	343.854451865243	923.192801285342	1359.269577905811	499.253655711597	853.092046748444	1437.526970780239	678.199198436954	828.808653672254	1496.485567985076	494.455734774786	850.861152985891	938.479205794139	634.820626764040	879.607552127195	736.402660730970	604.455558007898	790.011639823619	633.362627393787	660.953820041034	863.562647898418	576.925753771368	580.647920202742	857.717903688829	488.202852457491	585.233477233278	906.402209715893	786.782688760819	391.978300554616	863.321424521123	661.893190337474	311.371051467213	962.739453580313	599.611431303619	376.182467204213	983.877444987223	520.605055932234	368.984581912802	943.162488056156	446.677197603401	356.364380246157	835.144666685758	352.267041871119	300.574296824226	877.880879815427	227.866723871117	353.585583468442	825.348033046510	401.826504712579	589.456003228911	746.021249962664	301.464817422875	644.766353318255	785.144663085418	205.332031693729	581.817694982119	643.192772892689	45.583006433395	540.953575490522	812.892508633328	97.101846746611	589.584324703182	721.261324476571	37.393823494518	621.442239164312	929.626567672676	40.015776477539	626.406057262303	734.008986482046	86.732041770396	384.093578278011	806.536733703429	73.226448032993	304.522526529869	896.880134296633	124.181956319303	329.046827424676	1014.842838932588	57.847945753360	301.548151894405	747.235283267825	1081.707905492455	243.725054418110	785.743425641458	824.175469059923	229.365822711230	891.539523851136	1099.475545686456	806.691447266904	1130.677162379627	1019.527093661550	762.773472304620	
108	49.371571428571	826.225021565848	965.974249305118	362.022116708195	623.384312820882	1018.505395950888	530.057461432307	815.985626288255	1436.088265046851	344.073142375152	923.539422193781	1358.865761535266	498.660150329151	854.991358465221	1437.431170769450	678.105193926846	829.402207267457	1496.381501341564	494.532408514749	850.806725890229	938.127205221610	634.453426012168	877.782615306082	735.696739548810	603.613128057292	787.853175511654	633.216860096655	660.927238277969	860.384197775687	576.233497858295	580.179835806347	853.826648810737	487.581755861707	584.946542158906	904.103316149884	786.433312889524	391.722927594929	860.731270257089	661.840712149040	310.835186058474	959.237452969909	599.222950044572	376.684420965512	981.769846480818	522.658773951112	369.409968698414	945.315919382006	448.631274466262	356.412156041440	844.551693839175	347.078920985004	299.765360778710	895.324966618397	225.613040111297	353.492404633729	820.967729989764	401.383161867289	589.285505793440	741.143305393939	301.517323501605	644.761140928930	779.478332382382	205.137140018900	581.739481444056	636.604328213719	45.838122928322	541.054449462992	806.315717518382	97.044011909399	589.588302743173	714.639900778233	37.482625856288	621.469034923276	922.976114773966	39.830087874011	626.484011687924	761.343565568305	74.350341543770	383.358647741043	835.485668906510	65.978056815044	304.350838521225	921.888158618881	123.216288763919	329.356787770944	1044.633790180620	65.325211387198	302.994829221464	741.035699357703	1082.798369972361	244.147473759673	769.363772150466	824.319174873045	229.691793713061	901.514674309825	1101.150308947743	806.380030097387	1143.810426678973	1036.019021666063	758.488132490883	
109	49.384857142857	825.120102252303	965.990628783806	361.524509834543	623.233199903611	1018.813046091459	530.945706961007	815.462074095450	1436.005279967268	344.150858331395	923.830526891831	1358.444947059541	497.942679284118	856.728726354977	1437.245465240824	677.860570404369	829.922070626334	1496.227187144333	494.486115373974	850.848003763002	937.776983656311	633.928651801866	876.106441357854	734.960754144603	602.776159089296	785.791342763245	633.023503906762	660.833070166691	857.352968357769	575.497177899148	579.704221657155	850.056753049028	486.921112818438	584.622048087075	901.646397413937	785.696146422246	391.445251405479	858.075783166238	661.561447009835	310.115265270265	955.507561220014	598.447750041891	377.149930640557	979.348669703993	524.344682848869	369.868927129572	947.014851791435	450.483591560601	356.489687568639	853.727217997534	342.474069523272	298.851940584521	911.825448247330	224.343076256385	353.534778969508	816.679047951548	400.900754285742	589.077950018544	736.340426112857	301.558659366975	644.731378052586	773.845782414502	204.927700774335	581.645526797357	630.011155810671	46.098888177326	541.167826222340	799.735212659633	96.983056698083	589.574356901182	708.014196023039	37.579746714010	621.500600780225	916.324554513998	39.657816247545	626.554372341463	787.729968855397	64.136501969703	382.533434002498	863.409158991844	60.464561723430	304.381602667862	945.623842244234	123.455099596781	330.017225904218	1072.461477890042	73.694480867158	305.371560276353	734.759046962816	1084.071439743286	244.250284169995	753.995229033548	825.095607305501	229.970218775397	911.203242986646	1102.902902375756	805.723422183371	1155.656650490167	1052.521545256496	753.908360701270	
110	49.398142857143	824.135128456045	965.879304378017	360.858041579830	623.142235381889	1019.006529575287	531.627407052891	814.933175074307	1435.922624103425	344.075493581165	924.062480040771	1358.020213667783	497.098995108003	858.288998462582	1436.985662617936	677.455171220008	830.362041565518	1496.030302663188	494.303486806538	850.975024685100	937.427776069739	633.256382389602	874.578361756651	734.190902055436	601.961144313449	783.806761022575	632.779963869120	660.661212484860	854.458720537778	574.714473680067	579.221234084028	846.399280586237	486.219369165071	584.250426109003	899.144627803812	784.680756667926	391.156521368621	855.519485829439	661.124654370541	309.254693253319	951.800883527459	597.422365735743	377.531840330908	976.823335386813	525.696599886003	370.332685913469	948.364197613501	452.225796055928	356.566108064457	862.466657424672	338.560916398046	297.918620630144	927.072248425606	223.994135772278	353.693154162036	812.469766632551	400.376990716434	588.822993134317	731.601174649427	301.589067776962	644.668645949793	768.242480003070	204.704915089871	581.530615722065	623.411341620101	46.359321816953	541.290891787651	793.153107085472	96.924537915257	589.545682413361	701.383181690938	37.685371690646	621.536445089287	909.670510242988	39.501841241019	626.617610505157	812.534100677799	56.140548023597	381.750402710161	889.608313026105	56.634654435215	304.633524402149	967.590244598099	124.743809685372	330.939132642792	1097.799786018348	82.576374612688	308.381089634956	728.465864208333	1085.516519131679	244.064661496389	739.706790952152	826.358669715631	230.225999729455	920.557193173031	1104.730469425035	804.721762278344	1166.200886709257	1068.892565284432	749.072309023107	
111	49.411428571429	823.282438566995	965.654823599321	360.036186011566	623.108662255961	1019.090474387445	532.088091701632	814.398123950973	1435.838354738746	343.836032625743	924.233605010616	1357.602757985358	496.126668505014	859.665520681335	1436.669435311079	676.879563260778	830.714078177849	1495.796942922571	493.972309593119	851.178237772327	937.076380574113	632.449687142598	873.182094307376	733.382195340517	601.167347320410	781.875797445138	632.485634672830	660.402467215318	851.677341307628	573.883615827656	578.724915261753	842.832923760351	485.475780555635	583.822037942538	896.739452909141	783.507396342522	390.848654100748	853.200177947091	660.584163279973	308.315162487219	948.355058853117	596.273497259864	377.781317719610	974.391021926001	526.742899324823	370.762242834534	949.461689110690	453.825462367740	356.608735553559	870.544931967965	335.371301122272	297.056778907119	940.786319906479	224.405949853618	353.937903038903	808.318535365856	399.811087507345	588.510941034668	726.907373859868	301.607525790292	644.564667361388	762.659065833379	204.468748882731	581.389581011203	616.803825181136	46.611632397663	541.420345819841	786.570607030508	96.873884386944	589.505842576488	694.746243864038	37.798238744170	621.576065324519	903.012363565161	39.364711094745	626.673720616825	835.162569653126	50.243866652736	381.154566695064	913.411857067492	54.297728256078	305.105664669805	987.338754666827	126.815848006433	332.002862342520	1120.205342923559	91.493629100919	311.630470562818	722.221310096553	1087.112747931138	243.624143988085	726.536367352449	827.969637557663	230.470775660278	929.522581742938	1106.628952199421	803.381612680048	1175.442234336207	1084.994644914401	744.018837140439	
112	49.424714285714	822.581101765955	965.330074340969	359.074974053316	623.137353574980	1019.064208863539	532.316046008105	813.853590422068	1435.744929294320	343.422714306882	924.343634050393	1357.200238951589	495.023117274456	860.857852511457	1436.313193511293	676.125559369534	830.968150091037	1495.529815399890	493.481979980060	851.451490377970	936.717883440611	631.524407853178	871.887693143906	732.528628026592	600.379831487251	779.972048737908	632.141673815535	660.050588728521	848.973523223836	573.002883605211	578.206397000591	839.325129935775	484.690242849498	583.329239503416	894.591292862803	782.292985484291	390.495856973616	851.218213657657	659.971250037239	307.367272996800	945.373292652439	595.105074084567	377.852697213743	972.223093108258	527.504443358544	371.111207571529	950.390023507691	455.226804926706	356.591371164335	877.741739269515	332.863811471902	296.350628334384	952.730968751803	225.342734279458	354.239283243832	804.196765167516	399.204010854856	588.134695957252	722.235574329583	301.611828908001	644.413139106982	757.081702621169	204.217944124638	581.218239217332	610.187761691061	46.846876729869	541.552319135852	779.987161679821	96.834785388077	589.458115931806	688.102878740178	37.915314185555	621.619206140179	896.348316670312	39.248577615880	626.722434262372	855.090906477573	46.194775542777	380.878660250908	934.223734122546	53.154168889370	305.781346654178	1004.493065362166	129.322821524621	333.085316201908	1139.337512845235	99.909533378616	314.712927736046	716.090758610384	1088.827573344120	242.963354787106	714.494803246964	829.800564690747	230.703237553915	938.042864947134	1108.589251629687	801.716824214221	1183.394640676281	1100.694837387763	738.787126474918	
